<?xml version="1.0" encoding="utf-8"?>
<!-- Generator: Adobe Illustrator 22.1.0, SVG Export Plug-In . SVG Version: 6.00 Build 0)  -->
<svg version="1.1" id="Layer_1" xmlns="http://www.w3.org/2000/svg" xmlns:xlink="http://www.w3.org/1999/xlink" x="0px" y="0px"
	 viewBox="0 0 201 201" style="enable-background:new 0 0 201 201;" xml:space="preserve">
<style type="text/css">
	.st0{fill:#FFFFFF;filter:url(#Adobe_OpacityMaskFilter);}
	.st1{mask:url(#mask0_6_42_1_);}
	.st2{fill:url(#SVGID_1_);}
	.st3{fill:#27272A;}
</style>
<defs>
	<filter id="Adobe_OpacityMaskFilter" filterUnits="userSpaceOnUse" x="0.3" y="0.3" width="200" height="200">
		<feColorMatrix  type="matrix" values="1 0 0 0 0  0 1 0 0 0  0 0 1 0 0  0 0 0 1 0"/>
	</filter>
</defs>
<mask maskUnits="userSpaceOnUse" x="0.3" y="0.3" width="200" height="200" id="mask0_6_42_1_">
	<path class="st0" d="M81.3,46.2v35.1H46.2c-3.9,0-7,3.2-7,7v23.9c0,3.9,3.2,7,7,7h35.1v35.1c0,3.9,3.2,7,7,7h23.9c3.9,0,7-3.2,7-7
		v-35.1h35.1c3.9,0,7-3.2,7-7V88.3c0-3.9-3.2-7-7-7h-35.1V46.2c0-3.9-3.2-7-7-7H88.3C84.5,39.2,81.3,42.3,81.3,46.2z M12.2,0.3h88.1
		c55,0,100,45,100,100v88.1c0,6.5-5.4,11.9-11.9,11.9h-88.1c-55,0-100-45-100-100V12.2C0.3,5.6,5.6,0.3,12.2,0.3z"/>
</mask>
<g class="st1">
	
		<linearGradient id="SVGID_1_" gradientUnits="userSpaceOnUse" x1="200.261" y1="1.739" x2="0.2607" y2="201.739" gradientTransform="matrix(1 0 0 -1 0 202)">
		<stop  offset="0" style="stop-color:#2B7FFF"/>
		<stop  offset="1" style="stop-color:#559AFF"/>
	</linearGradient>
	<path class="st2" d="M200.3,0.3H0.3v200h200V0.3z"/>
</g>
<path class="st3" d="M67.2,43c4.9,4.1,9.5,8.2,14.1,12.3v-2C76.8,49.9,72.1,46.4,67.2,43z M196.8,196.8l-0.2,0.2l0,0v0l0,0l-0.2,0.2
	l-0.2,0.2l0,0h0l0,0l-0.2,0.2l-0.2,0.2l-0.2,0.2l-0.2,0.2l-0.2,0.2l-0.2,0.2l-0.2,0.2l-0.2,0.1l-0.3,0.1l-0.3,0.1l-0.3,0.1v0
	l-0.3,0.1l-0.3,0.1l-0.3,0.1l-0.3,0.1l-0.3,0.1l-0.3,0.1l-0.3,0.1v0l-0.3,0.1L191,200l-0.3,0.1l-0.3,0.1l-0.3,0l-0.3,0l-0.3,0
	l-0.3,0l-0.3,0l-0.3,0l-0.3,0c0,0-13-35-48.3-81h8.1C182.3,161.6,196.8,196.8,196.8,196.8z"/>
</svg>
